<svg width="256" height="106" viewBox="0 0 256 106" fill="none" xmlns="http://www.w3.org/2000/svg">
<path d="M96.1844 94.2987H78.7117L89.2094 59.4013H80.3321L65.7481 106H48.2754L77.1617 11.6325H94.6344L84.7707 44.7403H93.648L107.668 0H125.141L96.1844 94.2987Z" fill="#E02041"/>
<path d="M126.55 11.6325H159.875L154.873 26.5H139.725L134.23 44.6715H149.448L144.657 59.3325H129.791L123.943 78.5364H140.148L134.3 94.2299H101.609L126.55 11.6325Z" fill="#E02041"/>
<path d="M154.943 106H137.33L165.441 11.6325H197.427C201.232 11.6325 203.768 12.665 205.107 14.7987C206.445 16.9325 206.657 19.3416 205.811 22.0948L197.357 50.178C196.934 51.4169 196.159 52.5182 194.961 53.5507C193.764 54.5832 192.073 55.065 189.889 55.065C191.227 55.2715 192.354 56.0974 193.27 57.5429C194.186 58.9883 194.186 61.1909 193.27 64.1507L184.182 94.2987H166.639L176.361 61.8793C176.573 61.1909 176.643 60.5715 176.432 59.952C176.22 59.3325 175.586 59.0572 174.529 59.0572H168.682L154.943 106ZM178.334 46.8741C179.179 46.8741 179.954 46.6676 180.729 46.2546C181.434 45.8416 181.998 45.0156 182.42 43.7078L187.07 28.3585C187.775 26.0871 186.859 24.9169 184.393 24.9169H178.898L172.275 46.8741H178.334V46.8741Z" fill="#E02041"/>
<path d="M248.788 11.6325C251.536 11.6325 253.509 12.5961 254.777 14.5234C256.045 16.4507 256.327 18.6533 255.623 21.0624L236.177 85.5572C235.12 88.9987 233.288 91.2702 230.752 92.5091C228.216 93.7481 225.468 94.2988 222.579 94.2988H201.725C200.245 94.2988 198.907 94.0234 197.639 93.5416C196.37 93.0598 195.384 92.3026 194.539 91.339C193.693 90.3754 193.2 89.1364 192.918 87.7598C192.636 86.3832 192.777 84.8 193.341 83.0104L212.434 19.6858C213.068 17.2767 214.336 15.2806 216.239 13.8351C218.141 12.3897 220.536 11.6325 223.425 11.6325H248.788V11.6325ZM230.47 24.9169C229.625 24.9169 228.991 25.1234 228.638 25.4676C228.216 25.8806 228.004 26.3624 227.793 26.913L212.223 78.3987C211.8 79.7754 212.364 80.4637 213.843 80.4637H218.352C219.832 80.4637 220.748 79.7754 221.17 78.3987L236.67 26.9819C237.023 25.5364 236.459 24.8481 234.909 24.8481H230.47V24.9169Z" fill="#E02041"/>
<path d="M32.1977 20.6494H43.5409C45.0204 20.6494 45.9363 21.0623 46.359 21.8195C46.7818 22.5766 46.8522 23.4714 46.5704 24.5727L43.8931 33.5208C43.7522 34.0714 43.3999 34.5533 42.8363 34.9662C42.2727 35.4481 41.4272 35.5857 40.3704 35.5857C40.934 35.5857 41.3568 35.7234 41.6386 35.9299C41.9909 36.1364 42.2022 36.4117 42.3431 36.7558C42.484 37.1 42.5545 37.4442 42.5545 37.8571C42.5545 38.2701 42.484 38.6831 42.4136 39.0273L39.8772 47.2182C39.5954 48.1818 39.0318 48.939 38.3272 49.4896C37.6227 50.0403 36.4954 50.3156 35.1568 50.3156H23.25L32.1977 20.6494ZM33.325 45.4286C33.6068 45.4286 33.8886 45.3597 34.1 45.2909C34.3113 45.1533 34.5227 44.8779 34.6636 44.4649L36.4954 38.4766C36.6363 38.0636 36.6363 37.7883 36.4954 37.513C36.3545 37.2377 36.0727 37.1688 35.65 37.1688H33.6772L31.1409 45.4974H33.325V45.4286ZM36.7772 33.1766C37.2 33.1766 37.5522 33.1078 37.7636 32.9701C37.975 32.8325 38.1863 32.5571 38.3272 32.0753L39.9477 26.7065C40.0886 26.2935 40.0886 26.0182 40.0181 25.8117C39.8772 25.6052 39.5954 25.4675 39.1727 25.4675H37.1295L34.8045 33.1766H36.7772V33.1766Z" fill="#41414D"/>
<path d="M49.952 20.6494H61.9292L60.3088 26.0182H54.6724L52.6997 32.5571H58.1951L56.5747 37.8571H51.0792L48.9656 44.7403H54.8133L52.6997 50.3844H41.0043L49.952 20.6494Z" fill="#41414D"/>
<path d="M19.4454 55.5467L17.825 60.9156H13.5272L6.27044 85.213H0L7.39771 60.8467H3.02954L4.64999 55.4779H19.4454V55.5467Z" fill="#41414D"/>
<path d="M27.9705 85.213H21.7001L25.4341 72.6857H22.2637L18.4592 85.213H12.1887L21.1364 55.5468H27.4069L23.8841 67.4545H27.0546L30.6478 55.5468H36.9182L27.9705 85.213Z" fill="#41414D"/>
<path d="M38.8908 55.5468H50.8681L49.2476 60.9156H43.6113L41.6385 67.4545H47.134L45.5135 72.7545H40.0181L37.9045 79.6377H43.7522L41.6385 85.2818H29.9431L38.8908 55.5468Z" fill="#41414D"/>
</svg>
